<svg version="1" xmlns="http://www.w3.org/2000/svg" width="1000" height="1000" viewBox="0 0 750.000000 750.000000"><path d="M302.8 140.3c-30.7 17.7-55.7 32.4-55.7 32.7 0 .3 24.8 14.8 55.2 32.4 30.4 17.5 80 46.2 110.2 63.7 30.3 17.5 56 32.3 57.1 33 1.9 1 8.5-2.5 58.3-31.2 30.8-17.8 56.1-32.6 56.1-32.9 0-.3-25.1-15.1-55.7-32.8-30.7-17.8-81-46.9-111.8-64.7-30.8-17.9-56.4-32.4-57-32.4-.5 0-26.1 14.5-56.7 32.2zM232 383.2l.1 195.3 55.5 32c30.6 17.6 56 32.1 56.5 32.3.5.2.9-80.3.9-195V252.5l-55.8-32.3C258.5 202.5 233 188 232.7 188c-.4 0-.7 87.9-.7 195.2zM364 448c0 35.7.3 65 .6 65 1 0 112.4-64.5 112.4-65 0-.6-111.3-65-112.3-65-.4 0-.7 29.2-.7 65z"/></svg>