<svg width="650" height="750" viewBox="0 0 650 750" fill="none" xmlns="http://www.w3.org/2000/svg">
<path d="M311 515L198.5 579.952L198.5 450.048L311 515Z" fill="#5619EA"/>
<path d="M198 450L310.5 385.048V514.952L198 450Z" fill="#6730EC"/>
<path d="M438 175L325.5 239.952V110.048L438 175Z" fill="#6730EC"/>
<path d="M311 385L198.5 449.952L198.5 320.048L311 385Z" fill="#7847EE"/>
<path d="M325 240L437.5 175.048V304.952L325 240Z" fill="#7847EE"/>
<path d="M213 175L325.5 110.048V239.952L213 175Z" fill="#7847EE"/>
<path d="M198 320L310.5 255.048V384.952L198 320Z" fill="#5619EA"/>
<path d="M443 450L330.5 514.952V385.048L443 450Z" fill="#5619EA"/>
<path d="M550 240L437.5 304.952V175.048L550 240Z" fill="#5619EA"/>
<path d="M311 255L198.5 319.952V190.048L311 255Z" fill="#6730EC"/>
<path d="M198 580L310.5 515.048V644.952L198 580Z" fill="#7847EE"/>
<path d="M25.2405 201.934L325 28.8675L624.76 201.934V548.066L325 721.133L25.2405 548.066V201.934Z" stroke="#6730EC" stroke-width="50"/>
</svg>
